<?xml version="1.0" standalone="no"?>
<!DOCTYPE svg PUBLIC "-//W3C//DTD SVG 20010904//EN"
 "http://www.w3.org/TR/2001/REC-SVG-20010904/DTD/svg10.dtd">
<svg version="1.0" xmlns="http://www.w3.org/2000/svg"
 width="512.000000pt" height="512.000000pt" viewBox="0 0 512.000000 512.000000"
 preserveAspectRatio="xMidYMid meet">

<g transform="translate(0.000000,512.000000) scale(0.100000,-0.100000)"
fill="#000000" stroke="none">
<path d="M2402 4400 c-40 -11 -105 -36 -145 -57 -91 -47 -210 -164 -253 -248
-17 -33 -121 -305 -230 -603 -109 -299 -200 -538 -202 -532 -3 7 -62 243 -133
524 -109 433 -135 524 -170 595 -101 204 -315 331 -558 331 -176 0 -311 -58
-441 -189 -93 -94 -145 -182 -174 -297 -20 -77 -20 -209 -2 -289 13 -53 641
-2353 665 -2432 18 -60 71 -161 116 -219 91 -120 240 -218 390 -259 95 -26
275 -31 374 -11 222 45 415 180 516 360 20 36 114 271 210 523 95 252 178 471
185 488 11 28 22 4 213 -471 111 -275 218 -527 237 -559 44 -74 150 -180 223
-224 143 -85 268 -115 447 -108 143 5 219 25 340 88 183 95 301 241 364 449
13 47 168 614 342 1260 297 1101 318 1181 322 1276 5 120 -11 195 -65 303 -47
93 -144 195 -234 245 -301 166 -715 46 -873 -254 -32 -60 -60 -159 -171 -597
-74 -289 -135 -527 -137 -528 -2 -2 -95 234 -206 523 -112 290 -220 561 -240
602 -46 94 -149 201 -243 253 -134 75 -315 97 -467 57z"/>
</g>
</svg>
